 http://beeimg.com/images/q44876348612.png

PSY ΓÇô Gentleman (2013) {Mp3+Mp4} (320 kbps) (1080p) Full HD - SceneDL

Mp4 Info:

General
Complete name : PSY - Gentleman.MP4
Format : MPEG-4
Format profile : Base Media / Version 2
Codec ID : mp42
File size : 157 MiB
Duration : 3mn 53s
Overall bit rate mode : Variable
Overall bit rate : 5 667 Kbps
Movie name : Gentleman
Album : Gentleman - Single
Album/Performer : PSY
Part/Position : 1
Part/Total : 1
Track name/Position : 1
Track name/Total : 1
Performer : PSY
Composer : Park Jai-Sang/YOO GUN HYUNG
Genre : Pop
Writing application : SceneDL
Copyright : ? 2013 Schoolboy Records and Universal Republic Records, a Division of UMG Recordings, Inc.
Cover : Yes
Comment : SceneDL

Video
ID : 1
Format : AVC
Format/Info : Advanced Video Codec
Format profile : High@L4.0
Format settings, CABAC : Yes
Format settings, ReFrames : 1 frame
Codec ID : avc1
Codec ID/Info : Advanced Video Coding
Duration : 3mn 53s
Bit rate : 5 469 Kbps
Maximum bit rate : 10.4 Mbps
Width : 1 920 pixels
Height : 1 080 pixels
Display aspect ratio : 16:9
Frame rate mode : Constant
Frame rate : 23.976 fps
Color space : YUV
Chroma subsampling : 4:2:0
Bit depth : 8 bits
Scan type : Progressive
Bits/(Pixel*Frame) : 0.110
Stream size : 152 MiB (97%)

Audio
ID : 2
Format : AAC
Format/Info : Advanced Audio Codec
Format profile : LC
Codec ID : 40
Duration : 3mn 53s
Bit rate mode : Variable
Bit rate : 192 Kbps
Maximum bit rate : 201 Kbps
Channel(s) : 2 channels
Channel positions : Front: L R
Sampling rate : 44.1 KHz
Compression mode : Lossy
Stream size : 5.34 MiB (3%)

Mp3 Info:

Code:
General
Complete name : PSY - Gentleman.mp3
Format : MPEG Audio
File size : 7.51 MiB
Duration : 3mn 14s
Overall bit rate mode : Constant
Overall bit rate : 320 Kbps
Album : Gentleman - Single
Album/Performer : PSY
Part/Position : 1
Part/Total : 1
Track name : Gentleman
Track name/Position : 1
Track name/Total : 1
Performer : PSY
Composer : Park Jai-Sang/YOO GUN HYUNG
Encoded by : SceneDL
Genre : Pop
Recorded date : 2013-04-12T07:00:00Z
Writing library : LAME3.99.5
Copyright : ? 2013 Schoolboy Records and Universal Republic Records, a Division of UMG Recordings, Inc.
Cover : Yes
Cover type : Cover (front)
Cover MIME : image/jpg
Comment : SceneDL

Audio
Format : MPEG Audio
Format version : Version 1
Format profile : Layer 3
Mode : Joint stereo
Mode extension : MS Stereo
Duration : 3mn 14s
Bit rate mode : Constant
Bit rate : 320 Kbps
Channel(s) : 2 channels
Sampling rate : 44.1 KHz
Compression mode : Lossy
Stream size : 7.42 MiB (99%)
Writing library : LAME3.99.5

Screencap :
 
http://beeimg.com/images/f23051530212.jpg

By:

SceneDL